<svg width="19" height="18" viewBox="0 0 19 18" fill="none" xmlns="http://www.w3.org/2000/svg">
<path d="M16.5228 0.503662H2.37995C1.66987 0.503662 1.09424 1.0793 1.09424 1.78938V8.21795C1.09424 8.92803 1.66987 9.50366 2.37995 9.50366H16.5228C17.2329 9.50366 17.8085 8.92803 17.8085 8.21795V1.78938C17.8085 1.0793 17.2329 0.503662 16.5228 0.503662Z" stroke="black" stroke-linecap="round" stroke-linejoin="round"/>
<path d="M14.5941 9.50363V6.9322C14.5941 6.59121 14.4586 6.26418 14.2175 6.02306C13.9764 5.78194 13.6494 5.64648 13.3084 5.64648H5.5941C5.25311 5.64648 4.92608 5.78194 4.68496 6.02306C4.44384 6.26418 4.30838 6.59121 4.30838 6.9322V9.50363M4.30838 13.3608L3.66553 17.2179M9.45124 13.3608V17.2179M14.5941 13.3608L15.237 17.2179" stroke="black" stroke-linecap="round" stroke-linejoin="round"/>
</svg>
