<svg width="194" height="160" viewBox="0 0 194 160" fill="none" xmlns="http://www.w3.org/2000/svg">
<path d="M4.57853 92.3006C-9.95618 51.0924 11.9214 27.4161 44.7495 24.1117C75.207 21.0466 79.1765 45.2502 95.0902 28.1593C102.935 19.7346 126.479 2.35985 160.608 11.396C200.292 21.9013 197.916 61.0503 187.352 95.0707C173.216 140.599 31.8766 169.697 4.57853 92.3006Z" fill="#738FA7"/>
<path d="M26.7227 118.044L23.831 147.509C23.7681 148.289 24.3846 148.956 25.1663 148.956H26.0484C26.7146 148.956 27.2793 148.466 27.3746 147.807L32.5457 118.044H26.7227Z" fill="#B27C60"/>
<path d="M16.9991 112.453L11.314 144.073C11.1811 144.888 11.8098 145.628 12.6361 145.628H13.4848C14.1094 145.628 14.6518 145.195 14.7907 144.586L22.8221 112.453H16.9991Z" fill="#A56C53"/>
<path d="M40.2749 112.453L45.96 144.073C46.0928 144.888 45.4632 145.628 44.6379 145.628H43.7892C43.1636 145.628 42.6222 145.195 42.4833 144.586L34.4519 112.453H40.2749Z" fill="#A56C53"/>
<path d="M59.5924 116.472L65.0818 147.413C65.2066 148.224 64.5789 148.956 63.7576 148.956H62.908C62.2763 148.956 61.7308 148.515 61.598 147.897L53.7694 116.472H59.5924Z" fill="#B27C60"/>
<path d="M15.8341 113.939C15.8341 113.939 16.3583 118.044 22.2107 118.656C28.0621 119.267 51.0327 119.093 56.9723 117.695C62.9109 116.297 61.8635 112.366 61.8635 112.366L15.8341 113.939Z" fill="#935B47"/>
<path d="M41.7747 68.4286C41.7747 68.4286 47.0157 67.9916 47.0157 72.4468C47.0157 76.6394 47.0157 97.2547 47.0157 97.2547C47.0157 97.2547 46.2289 100.312 54.4397 101.884C62.0786 103.347 62.4751 106.514 61.9509 111.929L45.6175 105.64L45.6185 72.2714C45.6185 72.2714 45.7057 68.9528 41.7747 68.4286Z" fill="white"/>
<path d="M14.8739 72.2714V109.222H45.6183V72.2714C45.6183 70.1492 43.8977 68.4286 41.7745 68.4286H18.7167C16.5945 68.4286 14.8739 70.1492 14.8739 72.2714Z" fill="#C6D1E5"/>
<path d="M14.874 109.222C14.874 109.222 14.6996 105.64 22.8222 105.64C30.9448 105.64 45.6174 105.64 45.6174 105.64L61.9508 111.929C61.9508 111.929 62.9992 114.201 55.924 115.423C48.8498 116.646 35.6666 117.213 32.779 116.909C29.4594 116.559 14.874 109.222 14.874 109.222Z" fill="#C6D1E5"/>
<path d="M26.4682 96.5814C26.4682 96.5814 27.7305 92.7315 34.2744 93.7992C39.7122 94.6864 63.793 102.606 67.4918 104.37C71.1907 106.134 71.0893 112.119 64.2493 112.916C54.7488 114.022 39.5793 111.274 33.4744 109.336C27.3696 107.397 23.9871 102.687 26.4682 96.5814Z" fill="#F6AF9A"/>
<path d="M31.0228 108.333L33.509 96.6575C33.509 96.6575 38.3728 100.379 39.8055 102.015C41.1155 103.512 54.2408 109.477 60.5901 113.182C50.9172 113.364 38.7044 111.048 33.6976 109.458C32.7404 109.154 31.8512 108.74 31.0228 108.333Z" fill="#EA9A88"/>
<path d="M25.3123 97.8458C25.3123 97.8458 26.6629 93.2081 30.3587 93.2618C33.7067 93.3115 38.2633 94.1145 49.4551 97.5872C60.6468 101.06 64.2879 102.806 67.3327 104.094C69.4376 104.984 70.8237 107.842 70.2589 109.877C69.6931 111.912 67.9401 113.103 62.8349 113.33C57.7298 113.557 50.0472 112.868 45.4612 112.228C40.8752 111.589 35.2387 110.558 31.1445 108.783C27.0512 107.008 23.835 103.153 25.3123 97.8458Z" fill="#B9C1C6"/>
<path d="M32.6766 97.4646C37.0659 95.5199 42.6628 96.6575 42.6628 96.6575C42.6628 96.6575 43.2306 98.954 43.3442 99.5776C43.3442 99.5776 55.997 102.862 60.4654 105.594C62.7478 106.99 62.8603 109.89 62.0522 113.357C56.9704 113.488 49.8181 112.836 45.4613 112.228C43.0522 111.893 40.3531 111.449 37.7402 110.845C37.2616 110.073 36.8418 109.32 36.492 108.603C32.2224 99.8331 28.2863 99.4093 32.6766 97.4646Z" fill="#A7B2B8"/>
<path d="M70.0289 110.884C70.0289 110.884 65.4337 144.802 64.8264 147.04C64.2201 149.277 60.719 149.713 60.6571 146.091C60.5942 142.468 59.9839 135.218 59.3451 127.436C58.7053 119.654 59.7811 111.684 60.5618 108.651C61.6873 104.277 70.2631 103.327 70.0289 110.884Z" fill="#F6AF9A"/>
<path d="M66.3888 104.075C66.3888 104.075 70.8592 104.789 70.3441 110.834C69.8291 116.879 66.48 138.589 66.48 138.589C66.48 138.589 62.253 139.091 59.9179 138.459C59.9179 138.459 58.9445 126.358 58.7032 122.907C58.2642 116.638 59.4464 111 59.9544 107.92C60.4613 104.84 64.0922 103.536 66.3888 104.075Z" fill="#B9C1C6"/>
<path d="M60.8933 105.893C60.8933 105.893 63.5498 107.769 62.0522 113.357C61.1417 116.753 59.707 120.634 58.7205 123.155C58.7144 123.068 58.7083 122.985 58.7032 122.907C58.2652 116.638 59.4464 110.999 59.9544 107.92C60.0852 107.126 60.4239 106.45 60.8933 105.893Z" fill="#A7B2B8"/>
<path d="M63.9492 142.073C63.9492 142.073 65.3008 142.289 64.9834 144.864C64.7665 146.627 67.1705 149.506 69.0767 151.003C69.6861 151.481 70.0602 151.783 70.4779 152.018C72.2016 152.987 73.1872 153.568 72.809 154.429C72.4308 155.291 67.9107 154.291 66.5256 153.77C65.1406 153.248 64.0831 151.541 61.7247 151C59.3663 150.461 58.6565 149.579 58.7457 148.537C58.8877 146.898 60.731 145.533 61.2015 143.623C61.673 141.714 62.9566 141.713 63.9492 142.073Z" fill="#F6AF9A"/>
<path d="M58.6901 149.97C58.6901 149.97 58.6961 150.756 58.7448 150.985C58.7925 151.215 61.3831 151.786 62.4599 152.332C63.5356 152.88 65.1965 153.75 65.7014 154.334C66.2053 154.917 67.4565 155.46 68.3356 155.588C69.2147 155.715 72.2879 155.726 74.4902 154.66L66.3483 153.251L61.2208 150.387L58.6901 149.97Z" fill="#564756"/>
<path d="M69.317 151.168C69.317 151.168 68.5231 152.058 67.5274 152.461C66.5307 152.864 64.7847 151.765 63.5781 150.958C62.3705 150.15 60.1115 147.32 59.8124 146.238C59.8124 146.238 58.3594 147.561 58.5957 149.79C58.6332 150.595 60.296 151.047 61.4205 151.394C62.5439 151.74 65.169 153.228 65.6709 153.782C66.1738 154.337 66.9728 155.393 71.6125 155.142C73.0919 155.062 74.6229 154.615 74.6229 154.615C74.6229 154.615 72.0597 152.532 69.317 151.168Z" fill="#F0E9E9"/>
<path d="M42.2157 91.5188C42.2157 91.5188 42.4631 95.5553 42.3363 98.2209C42.2086 100.888 40.8773 103.545 38.7724 106.214C36.7739 108.749 32.8226 110.308 28.8875 109.863C24.9525 109.419 20.1241 109.456 19.2988 105.14C18.4734 100.824 20.8268 95.6425 22.6042 93.4869C24.3816 91.3303 25.0042 90.9652 25.7089 88.9252C26.4125 86.8852 42.0261 83.6477 42.2157 91.5188Z" fill="#F6AF9A"/>
<path d="M42.4448 91.0088C42.4448 91.0088 29.5902 91.6597 25.503 89.4788C25.503 89.4788 24.2721 91.0108 23.0341 92.3756C21.7971 93.7403 19.7297 96.7557 19.1294 101.167C18.5282 105.579 20.6422 108.142 21.2131 109.03C21.7839 109.92 24.3644 110.756 27.2125 110.858C29.9319 110.955 34.9032 110.403 37.8547 107.578C40.8053 104.754 42.2968 100.492 42.5827 98.6396C42.8686 96.7872 42.4448 91.0088 42.4448 91.0088Z" fill="#B9C1C6"/>
<path d="M23.6871 91.6415C24.6706 90.515 25.503 89.4788 25.503 89.4788C29.5902 91.6597 42.4448 91.0088 42.4448 91.0088C42.4448 91.0088 42.4945 91.6952 42.5492 92.6706C39.7995 93.6197 32.4383 95.4326 23.6871 91.6415Z" fill="#A7B2B8"/>
<path d="M19.6921 101.657C19.6921 101.657 21.0143 95.239 27.5906 95.8413C34.167 96.4446 53.962 105.057 57.2836 107.243C60.6053 109.428 60.7421 115.73 52.8994 115.373C45.0566 115.016 37.7421 114.811 24.6269 110.89C24.3491 110.806 18.2392 108.18 19.6921 101.657Z" fill="#F6AF9A"/>
<path d="M19.6587 100.773C19.6587 100.773 20.8014 96.2833 25.7889 95.6658C30.7765 95.0484 45.8009 101.119 48.1015 101.953C50.4021 102.788 55.5083 105.14 57.4844 106.393C59.6826 107.787 61.1579 110.463 60.288 113.151C59.418 115.84 57.0413 116.708 50.6941 116.335C44.3469 115.961 42.4803 115.176 38.8474 114.587C35.2144 113.998 27.2419 112.304 24.1302 111.079C21.0184 109.853 18.0577 106.13 19.6587 100.773Z" fill="#B9C1C6"/>
<path d="M22.9054 92.5205C22.949 92.4708 22.9926 92.4222 23.0342 92.3755C23.9244 91.394 24.8106 90.3264 25.2385 89.8042L42.5787 98.6639C42.529 98.9772 42.4459 99.3575 42.3273 99.7874C44.6431 100.628 46.5624 101.373 47.5885 101.761L47.6473 102.633C47.6473 102.633 47.2144 103.173 46.7977 102.955C46.7977 102.955 45.7351 103.65 44.9057 103.007C44.9057 103.007 43.8776 103.087 42.9934 102.189C42.1082 101.293 40.6654 100.601 40.2142 100.328C39.764 100.054 35.0665 98.3293 34.452 97.865C33.9197 97.4624 25.2324 93.5628 22.9054 92.5205Z" fill="#A7B2B8"/>
<path d="M50.6941 116.335C44.3469 115.961 42.4803 115.176 38.8473 114.587C35.9424 114.116 30.2654 112.939 26.5149 111.859C33.5719 112.247 46.0534 115.691 46.753 114.386C47.5611 112.878 49.5463 111.315 49.5463 111.315C49.5463 111.315 50.4599 113.857 50.9618 116.35C50.8736 116.345 50.7844 116.34 50.6941 116.335Z" fill="#A7B2B8"/>
<path d="M33.6184 107.113C32.0296 105.718 21.361 103.754 20.5337 102.72C19.7286 101.713 20.1605 97.3358 20.1828 97.1117C19.7205 98.2919 19.3362 99.6435 19.1294 101.167C18.9033 102.826 19.0614 104.223 19.3768 105.369C19.6728 106.826 20.3441 108.057 21.21 109.025C21.211 109.027 21.212 109.029 21.213 109.03C21.2911 109.151 21.4077 109.271 21.5547 109.387C22.3273 110.149 23.2216 110.721 24.1301 111.079C26.5737 112.041 32.0144 113.292 35.9971 114.07C35.9089 111.156 35.2083 108.508 33.6184 107.113Z" fill="#A7B2B8"/>
<path d="M59.5549 114.533C59.5549 114.533 46.168 146.034 44.9918 148.032C43.8157 150.03 40.3247 149.526 41.221 146.016C42.1174 142.504 43.4426 135.351 44.8803 127.677C46.3181 120.002 49.4602 112.599 51.0146 109.879C53.2544 105.957 61.7775 107.306 59.5549 114.533Z" fill="#F6AF9A"/>
<path d="M57.8423 107.005C57.8423 107.005 61.965 108.873 59.8732 114.568C57.7805 120.263 48.8183 140.317 48.8183 140.317C48.8183 140.317 44.6075 139.686 42.5228 138.459C42.5228 138.459 44.7788 126.531 45.4571 123.138C46.6901 116.976 49.3182 111.85 50.6211 109.013C51.924 106.177 55.7698 105.878 57.8423 107.005Z" fill="#B9C1C6"/>
<path d="M45.5535 141.744C45.5535 141.744 46.8372 142.22 46.022 144.682C45.4633 146.368 47.2569 149.663 48.8336 151.505C49.3375 152.093 49.6448 152.462 50.0077 152.775C51.5084 154.063 52.3611 154.826 51.8217 155.596C51.2823 156.367 47.045 154.501 45.7888 153.718C44.5335 152.935 43.8309 151.053 41.6235 150.061C39.4172 149.07 38.893 148.066 39.186 147.062C39.6454 145.482 41.7209 144.506 42.5564 142.724C43.3929 140.944 44.6522 141.195 45.5535 141.744Z" fill="#F6AF9A"/>
<path d="M38.7075 149.38C38.7075 149.38 38.8272 150.544 38.9052 151.524C38.9843 152.504 38.7684 153.997 38.7684 153.997C38.7684 153.997 39.0877 154.225 39.3716 154.084C39.3716 154.084 39.6718 152.616 39.837 151.929C40.0023 151.242 40.3977 150.177 40.3977 150.177C40.3977 150.177 39.3057 149.26 38.7075 149.38Z" fill="#564756"/>
<path d="M38.8494 148.456C38.8494 148.456 38.7023 149.228 38.7044 149.463C38.7064 149.698 41.1348 150.764 42.0838 151.512C43.0318 152.259 44.4899 153.438 44.8701 154.109C45.2503 154.78 46.3707 155.559 47.2072 155.855C48.0447 156.152 51.0571 156.765 53.4246 156.152L45.7167 153.175L41.2493 149.361L38.8494 148.456Z" fill="#564756"/>
<path d="M49.0364 151.713C49.0364 151.713 48.0833 152.431 47.0278 152.63C45.9723 152.83 44.4747 151.411 43.4496 150.383C42.4245 149.354 40.7637 146.135 40.6816 145.016C40.6816 145.016 38.9974 146.03 38.7926 148.261C38.672 149.058 40.2142 149.827 41.2484 150.388C42.2826 150.947 44.5649 152.92 44.9492 153.563C45.3335 154.205 45.9094 155.396 50.5086 156.061C51.9747 156.272 53.5646 156.134 53.5646 156.134C53.5646 156.134 51.4587 153.589 49.0364 151.713Z" fill="#F0E9E9"/>
<path d="M34.8849 60.5089C34.8849 60.5089 37.437 57.6536 41.7746 61.101C46.1132 64.5494 53.7775 78.5934 54.3534 80.0514C54.9821 81.6392 53.3415 84.5786 50.4174 82.8002C47.4932 81.0207 36.9108 67.6277 35.5257 66.4353C34.1407 65.2429 32.997 62.8541 34.8849 60.5089Z" fill="#F6AF9A"/>
<path d="M41.7745 59.7383C41.7745 59.7383 43.4039 60.3852 44.2343 61.6759C44.9968 62.8622 50.4507 71.5435 52.3498 75.0973C54.2489 78.6522 55.8763 81.7629 53.8231 83.2493C51.7688 84.7368 48.8518 82.1786 48.1015 81.404C47.3512 80.6283 36.4696 68.3405 34.7176 66.0551C32.9645 63.7707 33.6174 60.4744 35.4851 59.5446C37.3528 58.6138 40.8265 58.8592 41.7745 59.7383Z" fill="white"/>
<path d="M43.4264 76.1609C43.759 74.7536 43.908 72.603 43.0624 69.6211L42.2401 62.1535C42.2401 62.1535 43.1111 62.4901 43.4872 63.1096C43.4872 63.1096 43.5227 61.6455 42.1438 59.9106C41.9207 59.7971 41.7747 59.7383 41.7747 59.7383C40.8267 58.8592 37.3529 58.6138 35.4853 59.5446C34.4105 60.08 33.7413 61.3991 33.6987 62.8581C34.5302 63.8285 35.6293 64.7765 37.069 65.4731C37.069 65.4731 36.8105 63.6521 38.1022 62.8521C38.1022 62.8521 41.8568 69.2337 42.2401 69.9313C42.5716 70.5346 43.0208 73.4689 42.7846 75.4329C43.0016 75.6783 43.2155 75.9216 43.4264 76.1609Z" fill="#FFE7D1"/>
<path d="M37.7685 69.687C40.72 73.108 44.8873 77.8258 46.9243 80.1041C47.413 79.2382 48.8994 76.4479 48.8893 74.5022C48.8771 72.1732 46.537 67.8386 45.6173 66.7141C44.6987 65.5907 43.6696 63.1096 43.6696 63.1096C43.6696 63.1096 38.6273 66.3461 37.7685 69.687Z" fill="#FFE7D1"/>
<path d="M53.3192 83.0799C53.3192 83.0799 54.7478 82.4948 56.3711 81.4393C61.5848 78.0518 69.5827 72.1436 70.2093 71.52C71.0295 70.7028 71.1786 67.299 67.8326 69.0552C64.4866 70.8123 60.3954 72.5096 57.3546 73.8957C53.8627 75.4876 49.5403 77.6523 49.3314 79.9002C49.1225 82.1481 51.7425 84.0867 53.3192 83.0799Z" fill="#F6AF9A"/>
<path d="M66.7264 74.2019C65.3058 75.4663 63.3631 72.3961 64.3649 71.1743C64.3801 71.155 67.2637 69.5419 67.9603 67.7665C68.4135 66.6106 68.3912 66.0387 69.7611 65.1698C70.9261 64.4296 71.7048 63.9267 72.2127 64.0859C72.7501 64.2552 72.1661 64.9214 71.5344 65.334C70.85 65.7812 69.7022 67.2281 70.5742 67.3122C71.2678 67.3781 73.545 67.2423 74.2568 67.0415C75.4168 66.715 78.5265 64.4752 78.9635 65.9606C78.9635 65.9606 79.6864 65.9475 79.5181 66.7566C79.5181 66.7566 80.3313 67.1551 79.4086 68.0483C79.4086 68.0483 79.8395 68.5725 79.2585 69.0795C78.8641 69.4232 77.1952 70.5477 76.1083 71.1601C75.0203 71.7725 70.998 71.6853 69.4772 72.3251C68.9915 72.5279 67.0518 73.9129 66.7264 74.2019Z" fill="#F6AF9A"/>
<path d="M70.261 66.9989C70.2012 67.8465 70.3827 68.5685 69.9812 69.3705C70.767 68.8067 70.3077 67.7299 70.261 66.9989Z" fill="#E57E73"/>
<path d="M79.4086 68.0484C79.0101 67.9236 78.6461 68.2096 78.3186 68.3911C77.2986 68.9487 76.3161 69.6169 75.2646 70.0884C76.4489 69.9819 77.3686 69.043 78.3713 68.4762C78.6694 68.2501 79.0669 68.0068 79.4086 68.0484Z" fill="#E57E73"/>
<path d="M79.5182 66.7566C78.6463 66.7079 77.9213 67.2981 77.1821 67.6752C76.4349 68.0423 75.7302 68.6425 74.9941 68.9214C75.426 68.9335 75.8306 68.7064 76.1905 68.4854C77.2744 67.9074 78.3106 66.8996 79.5182 66.7566Z" fill="#E57E73"/>
<path d="M78.9636 65.9607C77.3647 65.9617 76.1267 67.2555 74.7203 67.8182C76.2696 67.654 77.4144 66.0357 78.9636 65.9607Z" fill="#E57E73"/>
<path d="M74.6219 70.2902C73.0534 69.5196 70.8917 68.8423 69.2836 69.8146C70.9971 69.1201 72.9358 69.7852 74.6219 70.2902Z" fill="#EA9A88"/>
<path d="M74.6219 67.7584C74.8825 68.0615 74.919 68.4762 74.9585 68.8585C75.216 69.183 75.2079 69.6484 75.2262 70.0468C75.361 70.1807 75.3326 70.4007 75.3093 70.572C75.2931 70.3916 75.2576 70.1938 75.1157 70.0833C75.0427 69.7224 75.0285 69.259 74.7983 68.967C74.6817 68.6162 74.7567 68.1548 74.5245 67.8304C74.4647 67.6387 74.4444 67.4187 74.3157 67.2494C74.4728 67.3761 74.561 67.5688 74.6219 67.7584Z" fill="#EA9A88"/>
<path d="M66.3421 69.8115C66.3421 69.8115 66.5753 71.9935 68.2401 73.0936C68.2401 73.0936 67.5415 73.9463 66.1849 75.0971C64.8283 76.249 54.8765 83.3019 52.8193 83.6699C50.761 84.039 48.3975 81.6177 48.9785 79.4368C49.5595 77.2568 51.6907 76.1253 52.6215 75.6061C53.5513 75.086 64.3243 70.571 64.9063 70.2901C65.4873 70.0082 66.3421 69.8115 66.3421 69.8115Z" fill="white"/>
<path d="M52.3499 75.0972C52.3347 75.0688 52.3175 75.0373 52.3023 75.0079C51.0815 75.9032 50.4123 77.5276 50.4123 77.5276C51.2336 76.6485 52.1137 75.9438 52.6206 75.6062C52.5233 75.4216 52.4493 75.2837 52.3499 75.0972Z" fill="#FFE7D1"/>
<path d="M34.9092 50.9059C34.9092 50.9059 35.0269 56.5717 31.766 59.9359C31.3868 60.3283 34.5675 62.6634 37.2443 62.3572C39.9211 62.05 41.0496 60.9357 41.1398 59.4726C41.2291 58.0095 41.0871 56.3841 41.7401 53.7215C42.3941 51.06 41.1246 48.8172 38.8037 48.2778C36.0519 47.639 35.0127 49.6455 34.9092 50.9059Z" fill="#F6AF9A"/>
<path d="M35.1891 51.3428C35.3017 50.0835 36.0601 47.6409 38.8038 48.2776C41.1247 48.8171 42.3941 51.0599 41.7402 53.7214C41.29 55.5567 41.2575 57.2083 41.1774 58.422C35.7204 57.0299 36.488 54.5863 35.1891 51.3428Z" fill="#EA9A88"/>
<path d="M40.794 58.8347C40.794 58.8347 42.325 60.2056 43.1271 62.2182C43.9159 64.1984 45.4449 67.8141 46.6018 70.3773C47.7587 72.9395 48.4218 77.3136 45.164 79.3121C44.8842 79.6741 44.7615 80.3879 44.5547 81.5184C44.3478 82.6489 43.9473 84.1577 43.4201 84.98C43.3755 85.6137 42.2581 88.0522 42.0807 90.585C41.9032 93.1178 26.4996 93.0205 25.5313 88.6889C25.5759 88.0562 26.5979 85.2639 26.0545 81.2173C25.511 77.1707 24.6836 69.9221 25.1896 66.3307C25.6956 62.7394 29.6255 59.7858 31.9241 58.9118C34.2237 58.0388 37.4054 57.2601 40.794 58.8347Z" fill="#F6AF9A"/>
<path d="M47.8866 73.1717C46.7875 68.7986 45.9378 67.5028 44.7414 64.8149C43.1789 61.3036 42.1427 59.7564 41.151 59.145C41.151 59.145 42.1193 60.6699 41.7746 61.9079L42.3718 68.9618L38.4509 62.3845C33.1308 60.0981 32.8267 58.5934 32.8267 58.5934L27.7033 59.8953C27.7033 59.8953 26.0992 61.5835 25.6024 62.7606C25.6024 62.7606 23.6394 67.6975 24.921 75.9407C26.2037 84.184 25.4696 85.2801 25.1117 86.3051C24.7537 87.3302 23.0138 89.0417 24.4597 90.1834C25.9056 91.3241 36.638 93.8265 41.9095 91.9375C43.3371 91.5066 43.257 91.0118 43.5378 88.6463C43.8187 86.2808 45.3528 82.0933 45.4927 80.0989C45.4927 80.0989 48.9867 77.5438 47.8866 73.1717Z" fill="white"/>
<path d="M41.151 80.3706C41.1044 80.836 39.4152 90.6255 39.0877 92.5236C39.472 92.4861 39.8441 92.4344 40.204 92.3715C40.491 90.1773 41.6985 80.9861 41.9257 80.3706C42.1842 79.672 42.9761 77.8378 43.3553 76.4426C43.7335 75.0475 43.9667 72.8087 43.0623 69.6209L42.24 62.1533C42.24 62.1533 43.111 62.4899 43.4871 63.1094C43.4871 63.1094 43.5013 62.4514 43.0978 61.4973C42.3627 60.2248 41.7482 59.513 41.151 59.145C41.151 59.145 42.1193 60.6699 41.7746 61.9079L42.3718 68.9618L38.4509 62.3845C33.1308 60.0981 32.8266 58.5934 32.8266 58.5934L31.469 58.9381C31.8381 60.0585 33.2778 63.6387 37.0689 65.4729C37.0689 65.4729 36.8104 63.6519 38.1021 62.8519C38.1021 62.8519 41.8567 69.2336 42.24 69.9312C42.6233 70.6287 43.1657 74.4401 42.6233 76.2682C42.0808 78.0964 41.2037 79.8555 41.151 80.3706Z" fill="#FFE7D1"/>
<path d="M31.7347 74.144C30.3648 77.3572 31.1871 80.0005 30.1702 81.1909C28.6868 82.9298 28.4394 85.2415 29.4472 86.2098C31.5734 88.2519 34.5676 92.1312 43.3442 90.2453C43.1819 91.2866 42.9335 91.6283 41.9095 91.9375C36.638 93.8265 25.9046 91.3241 24.4597 90.1834C23.0138 89.0417 24.7537 87.3302 25.1117 86.3051C25.4696 85.28 26.2037 84.184 24.921 75.9407C24.2326 71.5149 24.5287 68.3494 24.9504 66.3672C29.9501 65.6067 32.6746 65.4729 32.6746 65.4729C32.6746 65.4729 33.1055 70.9319 31.7347 74.144Z" fill="#FFE7D1"/>
<path d="M45.4886 80.0868C44.7819 80.2845 44.0214 80.2815 43.3553 80.6049C43.9525 80.8067 44.9735 80.3464 45.4886 80.0868Z" fill="#FFE7D1"/>
<path d="M39.6777 80.3596C39.6777 80.3596 35.9251 82.3864 31.2925 79.4369C31.2925 79.4369 35.9332 81.0511 39.6777 80.3596Z" fill="#FFE7D1"/>
<path d="M33.3843 57.624C33.3843 57.624 32.0662 57.9252 31.3656 58.8529C31.3656 58.8529 34.0464 63.3943 36.8236 64.7378C36.8236 64.7378 36.6289 63.081 38.451 62.3844C38.451 62.3844 34.3962 59.8243 33.7635 59.0983C33.1309 58.3713 33.3843 57.624 33.3843 57.624Z" fill="white"/>
<path d="M41.7746 61.908C41.7746 61.908 42.6233 61.5207 43.329 62.6096C43.329 62.6096 42.967 61.1354 42.1427 59.9095C42.1427 59.9095 41.7057 59.2657 41.1632 58.9524L41.1511 59.145C41.1511 59.145 41.9602 60.3709 41.7746 61.908Z" fill="white"/>
<path d="M29.282 60.7156C29.282 60.7156 34.2999 61.6728 32.1332 68.9467C29.9664 76.2207 23.3484 88.2794 20.5814 88.764C17.5021 89.3034 17.423 86.6875 18.2332 83.9529C19.0443 81.2173 23.4742 65.5318 24.3198 64.162C25.1654 62.7922 26.5281 60.306 29.282 60.7156Z" fill="#F6AF9A"/>
<path d="M28.129 59.8112C28.129 59.8112 26.2178 59.8569 24.632 62.9646C23.0462 66.0733 17.4726 83.7289 17.356 85.8612C17.2394 87.9924 18.225 89.2203 19.7276 89.4789C21.2313 89.7364 23.0523 88.4781 24.5255 86.5009C25.9978 84.5248 29.726 75.8618 31.7346 71.1713C34.0585 65.7458 33.7482 59.7717 28.129 59.8112Z" fill="white"/>
<path d="M18.4176 84.7457C18.4176 84.7457 19.3038 83.3394 21.6835 83.9589C23.4578 84.4203 28.1483 86.9176 31.256 89.6156C34.3637 92.3147 38.1244 94.8556 39.41 95.972C40.6967 97.0893 39.5763 98.8982 36.935 97.9583C34.2927 97.0173 20.4556 90.1246 19.0898 89.0701C17.723 88.0157 17.3459 86.3711 18.4176 84.7457Z" fill="#F6AF9A"/>
<path d="M38.1416 95.0565C38.1416 95.0565 40.5821 95.7146 42.3524 96.037C44.1227 96.3594 44.8457 96.6748 46.2571 98.1835C47.6685 99.6922 48.7392 101.271 48.6378 101.648C48.5374 102.024 47.5133 101.629 47.5133 101.629C47.5133 101.629 47.9159 102.383 47.6472 102.634C47.3785 102.884 46.3747 102.182 46.3747 102.182C46.3747 102.182 46.5673 102.747 46.1952 102.931C45.8231 103.113 44.8994 102.195 44.8994 102.195C44.8994 102.195 44.8812 102.612 44.5537 102.579C44.1238 102.534 43.5063 101.886 42.8939 101.278C42.2804 100.67 41.7339 99.9984 40.9714 99.8342C40.208 99.6699 37.4764 98.4674 36.5284 97.7566C34.8503 96.4984 35.1839 93.8094 38.1416 95.0565Z" fill="#F6AF9A"/>
<path d="M47.5135 101.629C46.4397 100.334 45.658 98.4816 44.0012 97.8651C45.4623 98.7574 46.4144 100.415 47.5135 101.629Z" fill="#E57E73"/>
<path d="M46.3747 102.182C45.2797 100.841 44.3915 99.0594 42.6627 98.4774C42.6627 98.4774 44.0092 99.3666 44.6581 100.144C45.3071 100.923 46.0807 101.875 46.3747 102.182Z" fill="#E57E73"/>
<path d="M44.8994 102.194C44.0457 100.988 43.2649 99.5156 41.7765 99.0381C43.0713 99.7884 44.0102 101.059 44.8994 102.194Z" fill="#E57E73"/>
<path d="M35.2763 97.2648C35.2763 97.2648 35.1841 94.6509 37.3143 94.368C37.3143 94.368 36.8297 93.5153 35.686 92.622C35.0827 92.1495 29.6085 87.7754 28.0906 86.5009C24.8744 83.8008 20.6696 82.4005 18.7128 83.8008C16.7559 85.202 17.4768 87.9102 18.2595 88.7559C19.0423 89.6005 26.2899 93.6856 28.5175 94.734C32.1017 96.4222 35.2763 97.2648 35.2763 97.2648Z" fill="white"/>
<path d="M37.5819 35.9736C37.5819 35.9736 30.5807 36.6124 31.182 44.9023C31.7589 52.8657 38.8037 59.0274 44.4493 57.0462C46.2369 56.2989 47.2143 52.082 46.9426 45.8382C46.6718 39.5954 43.7598 35.4221 37.5819 35.9736Z" fill="#F6AF9A"/>
<path d="M42.529 50.6909C42.529 50.6909 42.2076 50.1109 40.7445 50.263C39.5551 50.3877 38.674 50.6422 38.746 51.3834C38.747 52.3537 43.2803 52.1225 42.529 50.6909Z" fill="#EA9A88"/>
<path d="M46.9285 49.7571C46.9356 50.3705 46.894 50.846 46.7784 51.495C45.9541 51.4291 45.1075 51.1979 45.1075 50.8521C45.0406 50.1647 45.872 49.8909 46.9285 49.7571Z" fill="#EA9A88"/>
<path d="M40.7961 48.5931C40.8315 49.024 41.1236 49.3505 41.446 49.3241C41.7694 49.2968 42.0016 48.9257 41.9661 48.4947C41.9296 48.0638 41.6386 47.7373 41.3152 47.7637C40.9928 47.7911 40.7596 48.1622 40.7961 48.5931Z" fill="#192B4F"/>
<path d="M44.93 48.1429C44.9644 48.5576 45.2443 48.8729 45.5556 48.8476C45.8668 48.8212 46.0909 48.4633 46.0564 48.0486C46.022 47.6339 45.7411 47.3186 45.4298 47.3449C45.1186 47.3713 44.8945 47.7282 44.93 48.1429Z" fill="#192B4F"/>
<path d="M43.7578 51.7394C43.9961 51.7272 44.427 51.6836 44.6693 51.5407C44.9968 51.347 44.8579 51.054 44.6957 50.7153L44.6754 50.6727C43.701 48.6266 43.7497 47.7273 43.7507 47.7181C43.7578 47.6167 43.6817 47.5275 43.5793 47.5194C43.4769 47.5113 43.3887 47.5863 43.3796 47.6887C43.3766 47.7283 43.3117 48.6743 44.3398 50.8329L44.3601 50.8755C44.4229 51.0073 44.4939 51.1554 44.4959 51.2091C44.4929 51.2121 44.4878 51.2162 44.4797 51.2202C44.2982 51.3277 43.8389 51.3713 43.5915 51.3734C43.4901 51.3744 43.407 51.4575 43.407 51.5609C43.408 51.6633 43.4921 51.7455 43.5945 51.7455C43.6148 51.7455 43.6746 51.7445 43.7578 51.7394Z" fill="#E57E73"/>
<path d="M42.249 46.2104C42.249 46.2104 42.5218 46.177 42.5349 46.3595C42.5471 46.541 42.5268 46.9465 42.4123 47.0023C42.2987 47.0581 40.8843 47.0865 40.3388 47.127C39.7933 47.1676 38.9294 47.3521 38.8838 47.2913C38.8371 47.2304 39.1596 46.8745 39.77 46.6728C40.2891 46.5024 41.5261 46.2003 42.249 46.2104Z" fill="#A34545"/>
<path d="M46.8422 46.4729C46.8422 46.4729 47.1059 46.4699 47.114 46.3046C47.1241 46.0927 46.242 45.8118 44.7495 45.9801C44.3145 46.0511 44.3885 46.5662 44.5122 46.7984C44.6268 47.0133 45.2433 46.555 46.8422 46.4729Z" fill="#A34545"/>
<path d="M44.2891 54.0622C43.8227 54.1007 43.4901 54.2873 43.4719 54.2974C43.3827 54.3491 43.3512 54.4627 43.4029 54.5519C43.4536 54.6411 43.5672 54.6715 43.6564 54.6209C43.6645 54.6168 44.1431 54.3532 44.7119 54.4485C44.8133 54.4647 44.9096 54.3968 44.9269 54.2954C44.9431 54.194 44.8752 54.0977 44.7738 54.0814C44.6024 54.053 44.4392 54.05 44.2891 54.0622Z" fill="#EA9A88"/>
<path d="M42.0199 53.1427C44.5456 54.7142 45.5575 53.0849 45.8181 52.5211C45.8535 52.4441 45.7887 52.3599 45.7055 52.3731L42.0584 52.948C41.9621 52.9632 41.9367 53.0909 42.0199 53.1427Z" fill="white"/>
<path d="M29.655 48.3508C29.655 48.3508 28.0419 48.0983 27.8482 50.1313C27.762 51.0296 27.2459 50.9069 27.3919 51.7901C27.539 52.6742 27.5775 52.4745 27.763 53.1579C27.9486 53.8413 27.9962 54.7305 28.7993 54.9343C29.6033 55.1391 29.8193 55.4737 30.378 55.7414C30.9377 56.008 31.7742 55.9137 32.1067 55.6481C32.4393 55.3824 32.9027 55.6359 33.1612 54.9627C33.1612 54.9627 32.0226 49.3374 29.655 48.3508Z" fill="#B54C4C"/>
<path d="M30.4439 52.3729C29.5445 51.722 29.3184 50.1068 29.4715 48.3547L30.4439 52.3729Z" fill="#A34545"/>
<path d="M43.0237 39.708C43.0237 39.708 45.4358 41.2623 46.1081 42.7122C46.7803 44.1622 46.6495 46.3492 46.8067 47.4301C46.9638 48.5119 47.1463 48.954 47.3775 49.6567C47.6087 50.3593 47.4789 50.7132 47.2335 51.6673C46.9872 52.6214 47.3917 53.6891 48.1532 54.045C48.1532 54.045 47.3572 53.0472 47.7537 52.1347C48.1501 51.2212 48.6064 50.5033 48.3225 49.825C48.0386 49.1477 47.3927 48.1915 47.7811 47.1299C48.1704 46.0694 48.3063 42.1485 47.0237 39.493C45.742 36.8375 41.5504 35.3298 39.5824 35.5843C39.5824 35.5843 35.184 34.8299 32.6309 37.0971C30.0788 39.3653 29.1957 42.2854 29.291 45.896C29.3863 49.5066 30.0606 52.3922 31.2094 53.8574C32.1685 55.0792 34.165 55.7088 34.2065 55.5577C34.2471 55.4067 34.8352 54.5844 35.2712 52.3922C35.6392 50.5398 35.403 48.3193 35.6909 48.155C35.9799 47.9908 36.8803 49.7976 36.8103 50.3461C36.7414 50.8947 36.204 51.9634 36.6886 52.6802C37.1733 53.3971 37.9267 53.6049 37.7827 54.6026C37.6387 55.6013 37.6032 56.7917 38.2095 57.0066C38.2095 57.0066 37.9226 56.2797 38.2339 55.6186C38.5452 54.9585 38.6972 54.1078 38.3738 53.6303C38.0514 53.1517 36.7556 52.082 37.1652 51.4168C37.5758 50.7507 38.1649 50.6696 38.2369 49.2288C38.3079 47.789 37.8486 46.624 38.0615 45.969C38.2734 45.314 39.0288 44.6296 40.2891 44.1155C41.5494 43.6015 42.4468 41.8697 43.0237 39.708Z" fill="#B54C4C"/>
<path d="M43.0238 39.708C42.8038 37.8454 41.4573 36.0224 39.5825 35.5844C41.2596 36.4158 42.3891 37.9813 43.0238 39.708Z" fill="#A34545"/>
<path d="M41.7684 39.3794C39.482 40.4217 39.9535 41.5411 38.7145 43.2374C38.2998 43.8802 37.5748 44.0729 36.9482 44.4196C36.1573 44.9722 35.6554 45.9699 35.7355 46.9362C35.7842 46.119 36.2121 45.3149 36.8377 44.8009C37.587 44.2605 38.3566 44.2899 38.9487 43.4189C40.206 41.6932 39.6047 40.7137 41.7684 39.3794Z" fill="#A34545"/>
<path d="M40.2333 38.4719C38.9608 38.7599 37.7248 39.4696 37.0871 40.6458C35.916 42.3401 33.9449 44.0506 34.316 46.3187C34.2471 44.0719 36.1857 42.5429 37.3203 40.8009C37.9043 39.641 39.0511 38.9252 40.2333 38.4719Z" fill="#A34545"/>
<path d="M40.1514 36.941C37.9623 36.796 35.6059 37.4257 34.1519 39.1574C33.4341 39.9432 32.8267 40.8568 32.4992 41.8758C32.3542 42.3483 32.261 42.8492 32.2883 43.344C32.3117 43.6238 32.3238 43.9665 32.3086 44.2484C32.2498 45.8028 31.971 47.4321 32.4759 48.9439C32.0146 47.0803 32.6655 45.1518 32.553 43.27C32.5945 41.4317 33.791 39.8266 35.0878 38.614C36.4667 37.4145 38.3638 36.9998 40.1514 36.941Z" fill="#A34545"/>
<path d="M34.4267 47.6491C34.4267 47.6491 33.5547 47.8782 33.7859 49.2764C34.0079 50.6189 35.0888 52.0181 36.0165 51.5933C36.3086 51.4381 36.3674 50.2184 36.2234 49.1629C36.0804 48.1074 35.467 47.4595 34.4267 47.6491Z" fill="#F6AF9A"/>
<path d="M35.6798 50.623C35.7467 48.7412 34.7257 48.3934 34.6821 48.3792C34.6303 48.362 34.5746 48.3914 34.5573 48.4441C34.5401 48.4958 34.5685 48.5526 34.6212 48.5698C34.6506 48.5789 35.1941 48.7726 35.403 49.675C35.0714 49.4023 34.6253 49.4236 34.6009 49.4256C34.5462 49.4286 34.5046 49.4763 34.5077 49.531C34.5107 49.5858 34.5573 49.6284 34.6121 49.6253C34.6385 49.6233 35.2377 49.5969 35.4658 50.0735C35.481 50.2367 35.4871 50.4162 35.48 50.6159C35.478 50.6666 35.5145 50.7092 35.5622 50.7183C35.5672 50.7194 35.5713 50.7194 35.5763 50.7194C35.6321 50.7214 35.6777 50.6788 35.6798 50.623Z" fill="#E57E73"/>
<path d="M18.7169 68.4286C18.7169 68.4286 16.0969 69.04 16.0969 75.8536C16.0969 82.6662 16.0969 100.486 16.0969 100.486C16.0969 100.486 15.0971 104.533 24.7609 105.669C34.6599 106.834 35.1172 109.143 35.1172 117.005C35.1172 117.005 30.9449 117.52 27.0139 117.083C23.0839 116.647 14.6114 116.559 13.7385 109.833C12.8655 103.107 13.9128 93.7606 13.7385 88.1698C13.6127 84.1435 13.6685 75.6762 13.709 71.2544C13.7232 69.6889 14.9957 68.4286 16.5602 68.4286H18.7169Z" fill="#E4E8F2"/>
<path d="M176.786 116.599L179.499 147.388C179.56 148.144 178.961 148.792 178.203 148.792H177.346C176.7 148.792 176.153 148.317 176.06 147.678L171.135 116.599H176.786Z" fill="#B27C60"/>
<path d="M186.222 111.173L191.739 141.856C191.868 142.648 191.258 143.366 190.457 143.366H189.633C189.026 143.366 188.5 142.946 188.366 142.355L180.572 111.173H186.222Z" fill="#A56C53"/>
<path d="M160.823 111.173L155.307 141.856C155.177 142.648 155.788 143.366 156.589 143.366H157.412C158.02 143.366 158.546 142.946 158.68 142.355L166.474 111.173H160.823Z" fill="#A56C53"/>
<path d="M144.889 115.073L139.468 147.294C139.347 148.082 139.957 148.792 140.754 148.792H141.579C142.191 148.792 142.721 148.364 142.849 147.765L150.54 115.073H144.889Z" fill="#B27C60"/>
<path d="M187.352 112.615C187.352 112.615 186.844 116.598 181.165 117.192C175.486 117.785 153.196 117.615 147.431 116.26C141.668 114.903 142.685 111.089 142.685 111.089L187.352 112.615Z" fill="#935B47"/>
<path d="M162.179 68.4508C162.179 68.4508 157.094 68.027 157.094 72.3494C157.094 76.4183 157.094 96.4242 157.094 96.4242C157.094 96.4242 157.856 99.391 149.889 100.916C142.476 102.336 142.092 105.409 142.6 110.665L158.451 104.561L158.45 72.1801C158.45 72.1801 158.365 68.9588 162.179 68.4508Z" fill="white"/>
<path d="M188.285 72.1802V108.037H158.45V72.1802C158.45 70.1209 160.12 68.4509 162.179 68.4509H184.555C186.615 68.4509 188.285 70.1209 188.285 72.1802Z" fill="#C6D1E5"/>
<path d="M188.285 108.037C188.285 108.037 188.454 104.561 180.572 104.561C172.689 104.561 158.451 104.561 158.451 104.561L142.601 110.665C142.601 110.665 141.583 112.868 148.448 114.055C155.314 115.242 168.107 115.791 170.909 115.496C174.13 115.158 188.285 108.037 188.285 108.037Z" fill="#E4E8F2"/>
<path d="M151.409 77.1951C151.409 77.1951 152.604 84.4092 152.421 88.2439C152.238 92.0786 149.464 103.528 149.464 103.528L163.088 105.617L160.196 75.9551L151.409 77.1951Z" fill="#E26E5F"/>
<path d="M174.176 102.812C174.176 102.812 173.615 94.4238 162.316 94.4785C151.738 94.5313 136.6 94.6377 132.276 98.1216C130.969 99.0595 128.453 104.867 134.083 107C139.712 109.132 148.767 111.162 154.037 111.985C159.308 112.808 174.767 114.5 174.176 102.812Z" fill="#9E5959"/>
<path d="M174.451 103.679C174.451 103.679 174.789 97.6024 168.628 95.2815C167.195 94.733 163.861 94.1844 157.448 94.2686C151.035 94.3528 141.837 94.7756 136.943 96.041C132.049 97.3074 130.192 98.594 130.403 102.941C130.572 106.781 135.846 107.94 137.576 108.447C137.576 108.447 150.866 112.836 161.119 112.793C171.371 112.752 174.451 109.08 174.451 103.679Z" fill="#69948A"/>
<path d="M133.528 107.008C135.052 107.797 136.733 108.2 137.576 108.447C137.576 108.447 150.866 112.836 161.119 112.793C165.505 112.775 168.574 112.091 170.655 110.894C168.77 105.772 165.614 100.193 163.088 97.9695C159.627 94.9206 156.277 94.8668 156.277 94.8668C156.277 94.8668 155.762 96.4496 155.007 96.8998C154.253 97.3489 141.379 100.294 137.379 102.258C135.139 103.357 134.057 105.154 133.528 107.008Z" fill="#558579"/>
<path d="M139.567 109.06L140.565 103.071C140.565 103.071 142.739 104.902 143.714 110.196C142.047 109.773 140.623 109.371 139.567 109.06Z" fill="#2E4763"/>
<path d="M141.021 145.96V149.348C141.021 149.385 141.001 149.417 140.969 149.433C140.729 149.544 139.665 149.957 137.295 149.786V146.846L141.021 145.96Z" fill="#E5B8B7"/>
<path d="M137.295 149.786L135.863 149.157C135.819 149.138 135.789 149.094 135.789 149.045V146.846H137.295V149.786Z" fill="#D69D9D"/>
<path d="M140.98 143.991C140.98 143.991 140.769 143.492 139.137 144.166C137.506 144.842 131.359 146.86 129.56 147.451C127.759 148.042 124.905 147.62 123.583 147.423C122.26 147.226 120.91 147.085 120.967 147.451C120.967 147.451 121.444 148.267 123.695 148.577C125.945 148.886 128.884 149.28 132.372 147.677C135.86 146.072 141.148 145.932 140.98 143.991Z" fill="#E5B8B7"/>
<path d="M140.98 143.991C140.98 143.991 141.311 144.49 141.235 145.617C141.222 145.807 141.093 145.968 140.913 146.027C140.163 146.266 138.096 147.046 135.776 147.507C133.371 147.986 131.732 148.848 130.905 149.261C130.593 149.417 130.254 149.511 129.906 149.538C128.318 149.659 125.165 149.963 121.44 148.959C121.193 148.893 121.013 148.681 120.984 148.427C120.959 148.207 120.943 147.891 120.967 147.451C120.967 147.451 123.878 148.829 127.646 148.463C131.416 148.098 131.992 147.128 136.437 146.087C140.877 145.19 140.941 144.451 140.98 143.991Z" fill="#F7D5D3"/>
<path d="M139.924 135.2C139.924 135.2 139.573 136.888 139.826 138.618C140.14 140.766 141.479 143.112 140.108 144.504C138.829 145.803 136.493 145.411 133.455 146.593C130.418 147.775 129.912 148.703 124.961 148.52C122.851 148.267 121.583 148.251 121.655 146.692C121.712 145.482 123.132 144.834 124.51 144.638C125.747 144.461 127.351 143.696 130.108 141.67C133.192 139.404 134.215 138.688 134.158 137.31C134.116 136.29 134.046 135.242 134.004 134.285C133.949 133.04 135.003 131.888 137.07 131.803C139.023 131.723 140.22 132.9 139.924 135.2Z" fill="#9E5959"/>
<path d="M131.036 147.986C131.036 147.986 129.731 147.141 129.243 146.319C128.49 145.05 127.88 143.9 127.412 143.462C127.355 143.409 127.275 143.393 127.202 143.419C126.742 143.581 126.102 144.194 124.053 144.631C121.88 145.095 120.995 145.675 120.967 147.451C120.967 147.451 125.214 150.348 131.036 147.986Z" fill="#F7D5D3"/>
<path d="M139.945 139.174C140.01 139.245 140.337 139.578 140.233 140.193C140.227 140.226 140.21 140.256 140.186 140.281C139.952 140.507 138.657 141.768 137.168 143.428C136.077 144.645 134.742 145.581 134.806 146.889C134.806 146.889 132.78 147.521 132.19 147.796C132.19 147.796 130.544 148.345 130.248 148.386L129.707 147.289C129.707 147.289 132.302 146.93 135.017 143.977C137.822 140.923 139.743 139.319 139.92 139.173C139.927 139.165 139.938 139.166 139.945 139.174Z" fill="#F7D5D3"/>
<path d="M134.5 97.3104C131.897 97.5872 130.335 99.9669 130.446 102.582C130.61 106.484 130.762 111.472 132.482 124.204C134.792 141.294 135.341 139.736 137.296 140.115C139.7 140.579 139.707 135.903 140.396 131.429C141.013 127.415 142.601 118.376 142.343 112.456C142.048 105.662 139.82 97.5477 135.776 97.2861C135.322 97.2567 134.896 97.2679 134.5 97.3104Z" fill="#9E5959"/>
<path d="M135.508 96.9271C135.508 96.9271 139.052 97.0112 140.656 102.244C142.259 107.476 142.513 109.84 142.892 119.08C143.216 126.971 141.821 134.569 141.405 136.622C141.336 136.965 141.077 137.237 140.738 137.324C139.934 137.529 138.314 137.844 136.258 137.733C134.175 137.62 132.218 137.298 131.357 137.142C131.104 137.095 130.922 136.872 130.928 136.614C130.938 136.212 130.938 135.444 130.899 133.978C130.672 125.373 130.195 123.515 129.997 117.69C129.806 112.121 127.619 98.6366 133.652 97.0538C134.591 96.8115 135.508 96.9271 135.508 96.9271Z" fill="#69948A"/>
<path d="M133.016 111.173C132.964 113.938 139.424 131.507 140.095 134.143C140.409 135.373 140.599 136.487 140.715 137.329C140.722 137.327 140.731 137.325 140.738 137.324C141.077 137.237 141.336 136.965 141.405 136.622C141.821 134.569 143.216 126.971 142.892 119.08C142.513 109.839 142.259 107.476 140.656 102.244C140.532 101.843 140.398 101.476 140.254 101.132C139.094 101.525 138.093 101.907 137.379 102.258C133.378 104.222 133.068 108.409 133.016 111.173Z" fill="#558579"/>
<path d="M180.41 80.5927C180.41 80.5927 180.713 87.9072 181.92 92.839C183.486 99.2308 184.44 109.572 172.848 112.203C164.037 114.203 157.665 107.31 156.618 98.9388C156.2 96.0085 155.212 91.0565 155.023 87.2025C154.784 82.3742 157.387 76.8178 160.748 74.0833C167.113 68.9051 179.672 68.3789 180.41 80.5927Z" fill="#69948A"/>
<path d="M167.334 95.4752C167.601 100.547 161.552 102.93 157.935 103.897C157.283 102.353 156.835 100.678 156.618 98.9388C156.532 98.3365 156.423 97.6491 156.3 96.9028C163.302 95.0879 167.334 95.4752 167.334 95.4752Z" fill="#558579"/>
<path d="M178.182 110.124C181.906 107.169 182.347 101.763 178.927 98.4592C177.06 96.6544 174.061 95.0017 169.478 95.4529C160.119 96.3755 156.948 97.6237 149.753 100.235C144.556 102.12 143.503 102.384 139.999 104.209C136.495 106.035 136.027 109.481 136.772 111.361C137.516 113.242 139.493 115.855 145.632 115.855C151.278 115.855 155.461 115.859 161.108 115.165C164.932 114.695 173.411 113.91 178.182 110.124Z" fill="#9E5959"/>
<path d="M181.514 102.311C181.514 102.311 179.552 95.2217 171.768 95.0321C171.768 95.0321 165.123 94.8424 154.872 98.1337C154.872 98.1337 138.291 102.501 136.645 107.438C135.181 111.831 136.582 115.222 145.189 116.235C154.052 117.278 168.262 116.162 174.489 112.754C178.623 110.491 182.653 107.5 181.514 102.311Z" fill="#69948A"/>
<path d="M154.563 116.579C152.919 116.625 151.302 116.622 149.76 116.568L147.153 107.519C150.382 109.43 153.498 114.58 154.563 116.579Z" fill="#558579"/>
<path d="M162.061 149.603C162.061 149.603 161.752 149.265 160.121 149.941C158.489 150.616 152.441 152.472 150.641 153.064C148.841 153.654 145.156 153.232 143.835 153.035C142.513 152.838 141.162 152.697 141.219 153.064C141.219 153.064 141.697 153.879 143.946 154.189C146.197 154.498 149.966 154.892 153.454 153.289C156.942 151.685 162.23 151.545 162.061 149.603Z" fill="#E5B8B7"/>
<path d="M162.061 149.603C162.061 149.603 162.394 150.102 162.317 151.229C162.304 151.419 162.176 151.581 161.994 151.639C161.245 151.878 159.15 152.535 156.858 153.119C154.578 153.7 152.813 154.46 151.987 154.873C151.675 155.03 151.336 155.124 150.987 155.15C149.399 155.271 145.417 155.575 141.691 154.571C141.445 154.505 141.266 154.293 141.236 154.039C141.211 153.82 141.196 153.503 141.219 153.063C141.219 153.063 144.959 154.441 148.729 154.076C152.498 153.71 153.679 152.592 158.123 151.552C160.634 151.023 161.752 150.391 162.061 149.603Z" fill="#F7D5D3"/>
<path d="M158.883 141.15C158.883 141.15 159.208 142.453 159.853 143.935C160.72 145.924 162.09 149.124 160.739 150.348C159.389 151.572 157.757 151.066 154.719 152.247C151.682 153.428 150.065 154.386 145.803 154.132C143.694 153.879 141.871 153.864 141.837 152.304C141.809 151.009 143.328 150.559 144.706 150.362C145.943 150.186 148.208 149.926 150.782 147.437C153.356 144.947 154.157 144.398 154.031 143.385C153.904 142.374 153.398 141.993 153.145 141.15C152.891 140.305 153.524 138.745 155.423 138.28C157.321 137.816 158.123 138.997 158.883 141.15Z" fill="#9E5959"/>
<path d="M151.794 153.682C151.794 153.682 150.697 152.838 150.248 151.995C149.823 151.199 148.974 149.654 148.478 149.173C148.426 149.122 148.351 149.103 148.281 149.123C147.743 149.278 146.575 149.92 144.65 150.208C143.049 150.447 141.021 151.009 141.219 153.063C141.219 153.063 145.972 156.045 151.794 153.682Z" fill="#F7D5D3"/>
<path d="M160.319 144.77C160.46 144.877 160.824 145.184 160.772 145.843C160.766 145.91 160.743 145.974 160.705 146.028C160.489 146.331 159.653 147.476 158.25 149.04C157.159 150.257 155.824 151.193 155.887 152.501C155.887 152.501 153.862 153.133 153.271 153.408C153.271 153.408 151.626 153.957 151.331 153.998L150.486 152.606C150.486 152.606 153.418 152.269 156.098 149.589C158.86 146.827 160.016 145.11 160.226 144.786C160.246 144.754 160.29 144.746 160.319 144.77Z" fill="#F7D5D3"/>
<path d="M137.152 112.564C137.152 112.564 140.628 120.051 144.493 126.615C147.847 132.311 153.061 141.329 154.776 144.286C156.492 147.242 158.038 145.795 158.6 145.214C159.162 144.634 159.617 143.161 158.707 140.137C157.797 137.112 156.525 131.777 154.997 126.868C153.226 121.172 150.418 111.063 145.988 106.633C140.735 101.38 134.747 106.868 137.152 112.564Z" fill="#9E5959"/>
<path d="M139.348 104.607C139.348 104.607 142.386 103.088 145.747 105.38C148.877 107.516 151.598 112.301 153.96 117.787C156.323 123.272 159.355 137.225 159.355 137.225C159.355 137.225 157.505 138.949 156.033 139.489C150.071 141.678 148.033 140.924 148.033 140.924C148.033 140.924 146.864 139.603 146.071 138.206C143.949 134.469 139.548 123.824 137.692 119.182C135.836 114.541 135.34 110.599 136.563 107.687C137.618 105.071 139.348 104.607 139.348 104.607Z" fill="#69948A"/>
<path d="M161.971 55.1572C161.971 55.1572 157.822 56.5463 151.198 63.5931C144.574 70.6399 141.428 72.1 139.722 74.5648C138.204 76.759 140.267 79.0637 141.958 78.9106C143.984 78.728 150.735 74.7332 156.051 70.2607C161.367 65.7872 165.755 61.7366 165.332 58.1919C164.911 54.6482 161.971 55.1572 161.971 55.1572Z" fill="#9E5959"/>
<path d="M164.359 55.5181C164.359 55.5181 162.883 54.3694 160.363 55.5181C157.844 56.6669 153.602 60.3586 150.692 63.3163C147.783 66.2739 140.173 72.7509 139.398 74.3397C138.623 75.9286 138.896 77.4637 139.961 78.5182C141.025 79.5726 142.908 79.2086 144.641 78.5182C146.374 77.8277 155.868 71.5494 160.131 67.2858C164.393 63.0222 165.749 59.9754 165.783 58.7587C165.815 57.5409 164.976 55.8264 164.359 55.5181Z" fill="#E26E5F"/>
<path d="M160.131 67.2859C162.488 64.9285 163.954 62.9443 164.801 61.4345C160.412 60.3516 155.462 60.816 155.462 60.816C155.462 60.816 152.641 63.7078 152.129 63.9146C151.809 64.0434 151.426 63.3559 151.184 62.8226C151.018 62.9889 150.852 63.1542 150.692 63.3164C148.575 65.469 143.97 69.4841 141.32 72.1234C141.69 73.9647 141.375 77.1434 139.682 78.2039C139.768 78.3124 139.859 78.4179 139.961 78.5183C141.025 79.5727 142.908 79.2077 144.641 78.5183C146.374 77.8278 155.868 71.5495 160.131 67.2859Z" fill="#D15C4D"/>
<path d="M127.746 69.8835C127.746 69.8835 127.695 65.9302 133.004 64.3029L133.43 65.9809L129.555 69.844L127.746 69.8835Z" fill="#564756"/>
<path d="M133.647 70.134C133.647 70.134 135.2 68.167 133.436 67.0963C131.235 65.7599 130.988 65.113 130.145 63.509C129.301 61.9059 128.753 61.6099 127.74 60.8504C126.727 60.091 125.588 58.7405 125.04 58.8256C124.491 58.9098 125.04 59.9643 125.461 60.597C125.883 61.2307 126.474 61.7366 126.348 62.2436C126.348 62.2436 124.575 61.9475 123.689 61.5257C122.804 61.1039 120.821 58.6989 120.103 58.8672C119.386 59.0365 119.892 59.5851 119.892 59.5851C119.892 59.5851 118.711 58.9939 118.88 60.091C118.88 60.091 117.783 60.0484 118.711 61.3148C118.711 61.3148 117.867 61.3148 118.753 62.4961C119.639 63.6783 120.947 65.0704 122.255 65.7031C123.563 66.3358 126.348 66.8002 127.866 68.1933C129.385 69.5855 131.523 72.7783 133.647 70.134Z" fill="#9E5959"/>
<path d="M126.33 62.2437C126.307 62.9362 126.315 64.232 127.203 64.308C126.776 63.6814 126.512 62.8845 126.33 62.2437Z" fill="#723333"/>
<path d="M119.88 59.5962C120.911 60.6253 122.377 62.6502 123.821 62.7759C122.451 61.841 121.107 60.5686 119.88 59.5962Z" fill="#723333"/>
<path d="M118.868 60.1031C119.961 61.187 121.884 63.2889 123.318 63.5789C122.516 62.8904 121.646 62.2841 120.805 61.6464C120.159 61.185 119.46 60.4824 118.868 60.1031Z" fill="#723333"/>
<path d="M118.7 61.327C119.686 62.2872 120.837 63.801 122.183 64.1447C121.668 63.6114 121.061 63.1521 120.46 62.711C119.876 62.2974 119.241 61.6484 118.7 61.327Z" fill="#723333"/>
<path d="M126.98 64.8596C126.085 64.1418 124.746 63.9268 123.689 64.3952C124.817 64.4044 125.889 64.5798 126.98 64.8596Z" fill="#914D4D"/>
<path d="M141.864 78.9219C141.864 78.9219 140.187 79.221 137.444 76.8859C134.519 74.3946 130.061 70.4292 128.372 68.6994C126.685 66.9696 127.782 65.5765 128.71 65.1973C129.639 64.8171 130.862 65.9141 133.436 67.0964C136.009 68.2776 140.144 69.9232 142.971 72.9194C145.798 75.9155 144.771 78.6014 141.864 78.9219Z" fill="#9E5959"/>
<path d="M133.004 64.3029C133.004 68.2562 127.746 69.8835 127.746 69.8835C127.746 69.8835 136.918 78.7818 141.065 79.1793C145.211 79.5767 145.598 75.519 145.211 74.6389C144.823 73.7588 142.227 71.084 140.406 69.7274C138.584 68.3718 133.004 64.3029 133.004 64.3029Z" fill="#E26E5F"/>
<path d="M145.211 74.6389C144.83 73.773 142.311 71.1723 140.495 69.7964C140.754 70.347 141.02 71.007 141.232 71.7543C141.79 73.7173 141.428 77.9606 138.95 78.503C139.733 78.8741 140.454 79.1205 141.065 79.1793C145.211 79.5768 145.598 75.519 145.211 74.6389Z" fill="#D15C4D"/>
<path d="M167.782 53.7894C164.321 53.5795 162.284 54.3086 159.824 56.7501C157.726 58.8307 155.777 63.6114 154.073 67.0091C152.412 70.3206 152.934 73.2691 155.071 77.1788C155.21 77.4323 155.789 78.2759 155.789 78.2759C155.789 78.2759 155.835 82.7291 156.238 86.0821C156.575 88.8745 157.093 90.8081 164.518 91.8007C171.946 92.7933 174.591 88.2884 175.956 79.1337C176.973 72.317 177.508 65.3016 177.355 61.7873C177.153 57.1121 173.843 54.1585 167.782 53.7894Z" fill="#9E5959"/>
<path d="M162.411 51.6075C162.411 51.6075 162.666 53.5045 162.312 54.9656C161.957 56.4267 161.255 57.9729 164.004 58.6827C166.149 59.2373 169.811 57.7488 170.537 56.671C171.264 55.5942 171.221 55.4097 170.791 54.2467C170.553 53.5998 169.594 52.1458 169.909 47.135C170.029 45.5756 168.204 44.2686 166.298 45.1386C164.968 45.7439 161.969 46.5844 162.411 51.6075Z" fill="#9E5959"/>
<path d="M166.298 45.1385C168.204 44.2686 169.432 45.9588 169.203 47.5061C169.118 48.0891 167.938 49.1841 167.289 50.2974C166.208 52.1529 165.139 54.1818 162.334 54.8672C162.653 53.4203 162.411 51.6074 162.411 51.6074C161.969 46.5844 164.968 45.7438 166.298 45.1385Z" fill="#914D4D"/>
<path d="M170.791 54.2467C170.791 54.2467 175.093 54.6979 177.055 58.3967C179.018 62.0966 181.471 73.7375 181.547 78.5689C181.622 83.4003 180.789 84.7691 180.864 86.8071C180.939 88.8451 181.241 89.6917 177.923 90.7979C173.621 92.2326 156.412 93.3642 154.977 91.7794C154.525 91.2511 154.6 83.7014 153.769 81.9656C152.939 80.2297 151.203 77.1342 151.429 72.68C151.656 68.2258 156.256 57.0553 162.354 54.7689C162.354 54.7689 159.959 58.3369 161.846 59.0923C163.733 59.8466 168.678 56.5108 170.791 54.2467Z" fill="#FFF3E8"/>
<path d="M162.088 92.5379C165.528 92.4801 169.597 92.181 172.87 91.7602C172.138 87.9002 165.416 80.4244 165.416 80.4244L163.692 72.8453L159.796 69.9485L158.249 70.1026C158.249 70.1026 156.402 67.1886 154.563 65.981C154.261 65.7823 153.859 65.6697 153.389 65.6322C152.219 68.3779 151.514 71.005 151.429 72.68C151.203 77.1342 152.939 80.2288 153.769 81.9656C154.012 82.4706 154.176 83.4703 154.3 84.6444C156.115 85.1879 158.685 85.9098 159.355 85.851C160.42 85.7577 160.845 88.9739 162.334 90.7321C162.927 91.4337 162.643 92.0502 162.088 92.5379Z" fill="#FFE7D1"/>
<path d="M162.354 54.7689C162.354 54.7689 159.446 57.8939 157.018 62.2091C155.111 65.5967 153.018 70.0722 152.758 72.8453C152.497 75.6194 152.734 79.8333 153.252 80.9C153.769 81.9656 154.153 82.868 154.311 84.7509C154.468 86.6348 154.977 91.7794 154.977 91.7794L153.759 91.0443C153.759 91.0443 153.425 83.9732 152.651 81.9666C151.876 79.96 150.566 75.4257 150.524 73.2742C150.481 71.1236 151.671 66.3166 153.091 64.1468C154.512 61.9759 157.948 57.5065 158.86 56.4014C159.642 55.4564 162.354 54.7689 162.354 54.7689Z" fill="#E26E5F"/>
<path d="M170.736 54.1099C170.736 54.1099 167.163 55.4158 165.332 58.192C163.502 60.9691 162.689 67.4055 161.821 71.15C160.954 74.8955 162.262 77.5378 163.27 80.8026C164.278 84.0685 165.52 92.329 165.782 95.8767C166.045 99.4235 165.782 111.173 165.782 111.173C165.782 111.173 178.539 112.767 185.126 110.665C185.126 110.665 181.709 91.0859 181.709 82.9309C181.709 68.4509 179.004 60.5037 176.988 56.7826C175.825 55.5182 174.384 54.2863 170.736 54.1099Z" fill="#E26E5F"/>
<path d="M176.264 85.5153C176.162 81.8459 176.162 65.7234 176.162 65.7234L165.913 65.1201C165.913 65.1201 164.191 71.3416 163.692 72.2268C163.371 72.7956 162.426 71.9702 161.791 71.3071C160.995 74.9684 162.276 77.5834 163.27 80.8026C164.123 83.5666 165.143 89.9067 165.596 93.9411C166.822 94.443 168.738 95.0382 170.655 94.8668C174.973 94.4785 176.33 87.8251 176.264 85.5153Z" fill="#D15C4D"/>
<path d="M185.126 110.665C185.126 110.665 184.439 106.724 183.68 101.642C183.178 102.01 182.392 102.373 181.174 102.672C176.756 103.757 172.605 103.912 170.34 104.92C168.359 105.801 167.091 109.193 166.602 111.265C169.518 111.572 179.538 112.447 185.126 110.665Z" fill="#D96252"/>
<path d="M172.173 55.6033C172.173 55.6033 176.928 56.3628 176.526 62.4666C176.19 67.5718 172.976 89.0692 170.264 90.7878C167.552 92.5054 163.889 91.5391 164.307 84.4345C164.725 77.3299 166.403 66.5852 167.045 61.6677C167.688 56.7511 169.958 55.1055 172.173 55.6033Z" fill="#9E5959"/>
<path d="M172.266 54.8672C172.266 54.8672 167.811 55.0254 166.82 59.6763C165.827 64.3272 163.967 79.8819 163.761 83.603C163.554 87.3241 163.571 91.1436 167.36 91.8949C171.149 92.6463 172.484 89.7525 173.368 86.7553C174.25 83.7581 176.959 66.1614 176.988 62.2435C177.017 58.3257 175.502 55.07 172.266 54.8672Z" fill="#E26E5F"/>
<path d="M169.231 83.8616C169.008 79.1245 165.716 75.6305 164.673 74.6389C164.44 76.611 164.233 78.4716 164.073 80.033L169.231 83.8616Z" fill="#D96252"/>
<path d="M150.3 62.2678L137.379 60.5117L145.715 80.8025L158.45 84.0653L150.3 62.2678Z" fill="white"/>
<path d="M153.759 75.4379C153.759 75.4379 155.073 71.0649 159.796 71.15L160.608 73.2945L156.3 76.4204L153.759 75.4379Z" fill="#564756"/>
<path d="M165.304 90.4856C165.304 90.4856 163.261 89.2618 159.099 81.996C156.138 76.828 153.887 73.3188 153.775 72.1061C153.591 70.1299 155.071 69.4973 156.79 70.7424C158.495 71.9773 160.887 74.9978 165.63 79.8454C170.944 85.2771 171.589 87.1822 170.865 88.9688C169.618 92.0451 167.462 92.0217 165.304 90.4856Z" fill="#9E5959"/>
<path d="M158.507 72.2886C158.507 72.2886 158.065 71.9642 157.741 71.4724C156.985 70.3226 155.858 68.3374 155.248 67.9967C154.377 67.51 152.62 66.9442 151.818 66.3247L152.332 67.7006C152.332 67.7006 152.806 68.1001 152.988 68.1772C153.326 68.3232 153.128 68.4823 152.587 68.3455C152.047 68.2086 149.99 67.4461 149.325 67.0943C148.659 66.7424 147.11 65.6768 146.142 66.0641C146.142 66.3551 146.529 66.7901 146.529 66.7901C146.529 66.7901 145.513 66.3065 144.932 66.6938C144.932 67.0943 145.707 67.6621 145.707 67.6621C145.707 67.6621 144.932 67.6134 144.932 67.8071C144.932 68.0007 146.142 68.8747 146.142 68.8747C146.142 68.8747 145.9 68.7318 145.658 68.8747C145.416 69.0177 145.658 69.3087 145.658 69.3087C145.658 69.3087 148.031 71.439 148.465 71.7776C148.901 72.1173 153.259 73.3107 153.695 73.3431C154.13 73.3756 155.515 76.2805 156.251 76.9588C156.988 77.6371 161.032 76.0858 158.507 72.2886Z" fill="#9E5959"/>
<path d="M146.538 66.7759C147.188 67.1247 147.894 67.5211 148.531 67.8963C148.861 68.0909 149.205 68.2582 149.508 68.4965C149.655 68.605 149.782 68.7378 149.94 68.8362C150.091 68.9325 150.258 69.0146 150.436 69.0917C150.445 69.0947 150.451 69.1059 150.446 69.115C150.444 69.1211 150.438 69.1252 150.432 69.1262C150.233 69.1475 150.032 69.1211 149.836 69.0592C149.699 69.0177 149.552 68.9355 149.429 68.8554C149.061 68.6456 148.725 68.3779 148.38 68.1315C148.147 67.9683 147.679 67.6387 147.448 67.4735C147.138 67.2494 146.827 67.0314 146.52 66.8053C146.513 66.7992 146.511 66.788 146.517 66.7809C146.522 66.7738 146.531 66.7718 146.538 66.7759Z" fill="#723333"/>
<path d="M145.717 67.6479C146.354 68.0423 147.048 68.4854 147.678 68.8981C148.001 69.111 148.343 69.2986 148.644 69.5419C148.753 69.6281 148.871 69.7254 148.976 69.8157C149.162 69.9637 149.369 70.0691 149.568 70.2152C149.583 70.2253 149.574 70.2506 149.555 70.2476C149.356 70.2253 149.165 70.1817 148.972 70.1158C148.782 70.0458 148.615 69.9292 148.443 69.8268C148.112 69.623 147.823 69.3624 147.515 69.1262C147.286 68.9498 146.827 68.5888 146.6 68.4083C146.299 68.164 145.995 67.9247 145.696 67.6763C145.688 67.6702 145.687 67.659 145.693 67.6519C145.699 67.6448 145.709 67.6438 145.717 67.6479Z" fill="#723333"/>
<path d="M146.153 68.8615C146.653 69.2103 147.194 69.6027 147.683 69.9708C147.934 70.1594 148.206 70.3256 148.432 70.5457C148.655 70.7495 148.839 71.006 149.12 71.1348C149.135 71.1398 149.133 71.1642 149.117 71.1672C148.943 71.2057 148.772 71.1439 148.617 71.0739C148.334 70.9228 148.076 70.7272 147.843 70.5081C147.649 70.3165 147.36 70.0519 147.156 69.8653C146.822 69.553 146.456 69.2073 146.13 68.8879C146.124 68.8818 146.123 68.8706 146.13 68.8636C146.137 68.8575 146.146 68.8565 146.153 68.8615Z" fill="#723333"/>
<path d="M153.759 75.4379C153.759 75.4379 158.209 75.9571 159.796 71.15C159.796 71.15 169.775 82.3114 171.005 85.6188C172.235 88.9263 170.219 91.9011 168.411 92.0157C166.603 92.1303 164.4 91.1995 161.962 87.9438C159.523 84.688 153.759 75.4379 153.759 75.4379Z" fill="#E26E5F"/>
<path d="M165.939 31.9271C165.939 31.9271 172.901 32.6338 172.219 40.8801C171.564 48.803 164.489 54.8653 158.889 52.8354C157.117 52.0739 156.187 47.8661 156.519 41.6538C156.853 35.4404 159.793 31.3157 165.939 31.9271Z" fill="#9E5959"/>
<path d="M160.495 46.3208C160.495 46.3208 160.821 45.7459 162.276 45.9132C163.459 46.0481 164.334 46.3107 164.254 47.0488C164.243 48.0151 159.732 47.7393 160.495 46.3208Z" fill="#914D4D"/>
<path d="M156.475 45.314C156.495 45.9122 156.53 46.48 156.58 47.0164C157.367 46.9474 158.139 46.7325 158.144 46.4029C158.215 45.7489 157.46 45.464 156.475 45.314Z" fill="#914D4D"/>
<path d="M162.341 44.5271C162.302 44.956 162.009 45.2784 161.687 45.248C161.366 45.2186 161.138 44.8465 161.178 44.4186C161.218 43.9897 161.511 43.6673 161.832 43.6967C162.154 43.7271 162.382 44.0992 162.341 44.5271Z" fill="#192B4F"/>
<path d="M158.495 44.0983C158.456 44.5109 158.174 44.8222 157.865 44.7928C157.554 44.7634 157.335 44.4055 157.374 43.9928C157.412 43.5812 157.695 43.2699 158.005 43.2993C158.314 43.3277 158.534 43.6856 158.495 44.0983Z" fill="#192B4F"/>
<path d="M159.099 49.2177C159.612 49.3079 160.096 49.2836 160.413 49.2471C161.082 49.17 161.108 49.0838 161.11 49.0088L161.104 48.9642C161.09 48.8648 160.996 48.7969 160.897 48.8151C160.889 48.8172 160.06 49.0412 159.157 48.882C158.263 48.7249 157.804 48.3893 157.8 48.3862C157.725 48.3305 157.617 48.3457 157.561 48.4207C157.505 48.4957 157.52 48.6022 157.595 48.659C157.616 48.6742 158.116 49.0453 159.099 49.2177Z" fill="#723333"/>
<path d="M159.164 50.415C158.698 50.3856 158.364 50.2061 158.345 50.196C158.256 50.1473 158.223 50.0348 158.272 49.9445C158.321 49.8553 158.433 49.8218 158.523 49.8705C158.532 49.8756 159.012 50.1281 159.577 50.0236C159.678 50.0044 159.775 50.0713 159.793 50.1717C159.812 50.272 159.746 50.3694 159.645 50.3876C159.476 50.4191 159.313 50.4251 159.164 50.415Z" fill="#914D4D"/>
<path d="M159.364 47.4625C159.127 47.4473 158.698 47.4006 158.459 47.2557C158.134 47.059 158.276 46.769 158.44 46.4334L158.461 46.3908C159.451 44.3639 159.412 43.4676 159.412 43.4595C159.406 43.3571 159.483 43.2699 159.584 43.2628C159.686 43.2567 159.774 43.3317 159.781 43.4331C159.784 43.4727 159.839 44.4156 158.793 46.554L158.773 46.5966C158.709 46.7264 158.637 46.8734 158.634 46.9271C158.637 46.9302 158.642 46.9332 158.65 46.9383C158.831 47.0478 159.287 47.0944 159.532 47.0995C159.634 47.1015 159.716 47.1857 159.714 47.2881C159.713 47.3895 159.629 47.4716 159.526 47.4696C159.507 47.4696 159.447 47.4676 159.364 47.4625Z" fill="#723333"/>
<path d="M160.919 42.1404C160.919 42.1404 160.648 42.1049 160.634 42.2864C160.618 42.4679 160.636 42.8714 160.748 42.9272C160.862 42.984 162.268 43.0266 162.812 43.0722C163.354 43.1178 164.213 43.3105 164.259 43.2506C164.305 43.1908 163.989 42.8339 163.382 42.6271C162.867 42.4506 161.64 42.1384 160.919 42.1404Z" fill="#192B4F"/>
<path d="M156.607 42.4162C156.607 42.4162 156.345 42.4101 156.339 42.2458C156.332 42.0349 157.213 41.7642 158.696 41.9467C159.128 42.0218 159.05 42.5348 158.923 42.765C158.808 42.9769 158.198 42.5145 156.607 42.4162Z" fill="#192B4F"/>
<path d="M160.251 36.5739C160.251 36.5739 158.066 37.1133 157.382 38.5501C156.699 39.9858 156.806 42.1637 156.639 43.2395C156.47 44.3143 156.285 44.7533 156.048 45.4499C155.811 46.1464 155.936 46.5003 156.171 47.4524C156.407 48.4055 155.993 49.464 155.231 49.8108C155.231 49.8108 156.034 48.8252 155.648 47.9127C155.263 47.0002 154.816 46.2803 155.106 45.608C155.395 44.9358 156.048 43.9908 155.671 42.9302C155.295 41.8697 155.199 37.966 156.503 35.3349C157.806 32.7047 161.994 31.2457 163.95 31.5184C163.95 31.5184 168.336 30.8127 170.855 33.0951C173.374 35.3785 174.222 38.2945 174.092 41.8889C173.961 45.4823 171.728 49.534 170.439 50.3887C169.152 51.2435 168.503 52.0252 168.462 51.8751C168.423 51.7241 168.14 49.9537 168.154 49.0929C168.186 47.2131 167.983 44.2392 167.697 44.0729C167.412 43.9067 166.497 45.6952 166.56 46.2428C166.624 46.7893 167.148 47.859 166.658 48.5677C166.169 49.2764 165.416 49.4752 165.55 50.4708C165.684 51.4665 165.706 52.6518 165.101 52.8597C165.101 52.8597 165.394 52.1388 165.091 51.4777C164.788 50.8166 164.645 49.9689 164.971 49.4965C165.297 49.024 166.598 47.9715 166.196 47.3043C165.796 46.6372 165.208 46.551 165.153 45.1163C165.096 43.6816 165.564 42.5277 165.36 41.8727C165.155 41.2177 164.409 40.5292 163.16 40.005C161.911 39.4808 160.804 38.7305 160.251 36.5739Z" fill="#192B4F"/>
<path d="M171.517 33.7512C169.51 31.9332 167.241 31.3867 166.196 31.5347C166.196 31.5347 169.495 32.792 170.195 33.9915C170.896 35.192 171.83 38.4761 171.809 39.7313C171.789 40.9866 171.789 42.5369 171.478 43.8875C171.166 45.237 170.796 46.5034 170.278 46.9597C169.76 47.4149 169.073 46.765 168.427 46.3949C168.277 46.3097 168.164 46.2813 168.073 46.3097C168.137 47.2273 168.168 48.2656 168.154 49.093C168.14 49.9538 168.423 51.7241 168.462 51.8752C168.503 52.0253 169.152 51.2435 170.439 50.3888C171.728 49.534 173.961 45.4824 174.092 41.889C174.21 38.6302 173.524 35.9291 171.517 33.7512Z" fill="#152545"/>
<path d="M160.251 36.5739C160.49 34.7214 162.08 31.9362 163.95 31.5184C162.272 32.3306 160.9 34.8603 160.251 36.5739Z" fill="#152545"/>
<path d="M161.736 35.275C164.002 36.3356 163.521 37.4459 164.737 39.1462C165.144 39.7901 165.863 39.9898 166.483 40.3416C167.266 40.9003 167.755 41.898 167.665 42.8592C167.625 42.045 167.208 41.241 166.59 40.7229C165.849 40.1764 165.083 40.1987 164.502 39.3257C163.268 37.5949 163.876 36.6256 161.736 35.275Z" fill="#152545"/>
<path d="M163.273 34.3868C164.537 34.687 165.76 35.4058 166.383 36.584C167.533 38.2824 169.477 40.005 169.085 42.259C169.177 40.0223 167.262 38.4811 166.15 36.7351C165.581 35.5752 164.445 34.8502 163.273 34.3868Z" fill="#152545"/>
<path d="M163.37 32.864C165.551 32.7423 167.89 33.3922 169.32 35.1311C170.028 35.921 170.623 36.8366 170.938 37.8545C171.077 38.326 171.166 38.8249 171.134 39.3176C171.108 39.5955 171.092 39.9372 171.105 40.218C171.147 41.7663 171.409 43.3906 170.89 44.8912C171.368 43.0408 170.741 41.1133 170.871 39.2416C170.848 37.4104 169.673 35.8013 168.394 34.5816C167.035 33.373 165.149 32.94 163.37 32.864Z" fill="#152545"/>
<path d="M169.395 42.7427C169.395 42.7427 170.52 42.9049 170.429 44.6874C170.343 46.3989 169.189 48.3041 167.968 47.9056C167.581 47.7535 167.334 46.2346 167.362 44.8932C167.392 43.5518 168.066 42.6534 169.395 42.7427Z" fill="#9E5959"/>
<path d="M168.25 46.6432C167.898 44.298 169.126 43.716 169.179 43.6927C169.242 43.6643 169.316 43.6927 169.344 43.7555C169.374 43.8184 169.345 43.8934 169.282 43.9218C169.248 43.939 168.594 44.2584 168.462 45.4163C168.838 45.029 169.399 44.9915 169.429 44.9905C169.499 44.9864 169.558 45.0392 169.562 45.1091C169.566 45.1781 169.513 45.2379 169.444 45.242C169.411 45.244 168.657 45.2957 168.441 45.9243C168.444 46.1312 168.462 46.3573 168.5 46.6057C168.509 46.6686 168.47 46.7274 168.411 46.7446C168.405 46.7466 168.4 46.7476 168.394 46.7487C168.325 46.7588 168.261 46.7122 168.25 46.6432Z" fill="#723333"/>
<path d="M164.777 31.4374C164.777 31.4374 165.125 30.4812 167.065 30.096C169.005 29.7107 172.174 30.0098 174.146 33.2696C176.119 36.5294 176.946 42.4456 176.753 45.0119C176.561 47.5771 176.137 47.9178 176.768 49.6415C177.4 51.3642 177.474 54.1849 176.448 55.8752C175.422 57.5654 171.709 59.4584 170.573 61.1811C169.438 62.9047 169.569 65.9952 167.098 68.2107C166.282 69.0025 165.119 69.109 165.119 69.109C165.119 69.109 167.077 66.855 166.979 64.7582C166.979 64.7582 166.805 65.4548 166.279 65.7782C166.279 65.7782 166.715 65.0756 166.383 63.7169C166.051 62.3582 165.701 61.248 166.081 58.3603C166.675 53.8402 168.402 52.5018 169.073 50.1759C169.743 47.8509 172.068 45.8159 172.248 42.3077C172.392 39.5286 171.768 36.3164 171.237 35.0145C170.372 32.8914 167.177 31.4394 164.777 31.4374Z" fill="#192B4F"/>
<path d="M167.541 30.0199C167.541 30.0199 170.633 29.4977 171.95 30.4275C173.268 31.3583 173.733 32.4625 174.585 32.9177C175.438 33.373 175.929 34.5725 175.748 35.5905C175.568 36.6074 175.569 37.4683 176.55 38.8705C177.531 40.2718 177.199 41.7247 176.988 42.8593C176.779 43.9929 176.766 44.4137 177.381 45.3658C177.996 46.3178 177.851 47.1969 177.381 47.9594C176.91 48.7209 176.611 49.532 177.381 50.1343C178.15 50.7366 178.446 52.6255 177.789 53.2308C177.133 53.8361 177.386 54.4861 177.381 55.5183C177.376 56.5504 177.059 57.8594 176.171 57.7864C175.283 57.7134 174.631 58.411 174.105 59.3408C173.578 60.2716 172.192 61.1912 171.382 61.1861C170.573 61.1811 170.357 62.2366 170.34 63.579C170.323 64.9225 169.393 68.963 165.782 68.963L167.998 64.8059L166.196 62.9524C166.196 62.9524 165.282 62.4607 165.361 61.3271C165.44 60.1935 165.84 60.0647 165.782 59.6764C165.724 59.2891 165.621 58.7466 165.75 58.3593C165.879 57.972 166.066 57.8026 166.037 57.2795C166.009 56.7573 165.865 56.0455 166.318 55.6724C166.772 55.2982 166.835 54.5013 166.835 54.2468C166.835 53.9923 166.979 53.3647 167.481 52.9844C167.983 52.6052 168.015 51.8995 168.188 51.4605C168.359 51.0215 168.552 50.474 168.875 50.1343C169.198 49.7946 169.487 47.8976 170.434 47.4697C170.434 47.4697 173.086 46.3422 173.332 43.6816C173.578 41.0211 173.139 34.0706 171.538 32.2627C169.936 30.4539 167.541 30.0199 167.541 30.0199Z" fill="#192B4F"/>
<path d="M168.526 32.4015C168.078 31.9473 167.21 31.5599 166.763 31.3541C166.246 31.1168 166.057 31.0844 166.653 30.4598C166.848 30.256 167.181 30.1161 167.541 30.0198C167.375 30.0401 167.216 30.0664 167.065 30.0958C165.125 30.4811 164.777 31.4373 164.777 31.4373C165.958 31.4383 167.332 31.7911 168.526 32.4015Z" fill="#152545"/>
<path d="M184.555 68.4509C184.555 68.4509 187.098 69.0441 187.098 75.6559C187.098 82.2678 187.098 99.5604 187.098 99.5604C187.098 99.5604 188.068 103.486 178.691 104.589C169.084 105.72 168.62 107.946 168.62 115.575C168.62 115.575 172.689 116.089 176.503 115.666C180.317 115.242 188.539 115.158 189.387 108.63C190.234 102.103 189.216 93.0327 189.387 87.6081C189.508 83.7005 189.455 75.4846 189.415 71.1926C189.401 69.6737 188.166 68.4509 186.647 68.4509H184.555Z" fill="#E4E8F2"/>
<path d="M93.7233 115.232L83.9308 155.606H85.9962L97.3877 115.232H93.7233Z" fill="#B27C60"/>
<path d="M99.2311 115.232L100.392 159.05H102.457L103.555 115.232H99.2311Z" fill="#B27C60"/>
<path d="M109.063 115.232L118.856 155.606H116.79L105.399 115.232H109.063Z" fill="#B27C60"/>
<path d="M110.719 113.979H92.0675C92.0675 113.979 92.0675 115.628 92.0675 115.638C92.0675 116.089 96.2429 116.454 101.394 116.454C106.543 116.454 110.719 116.089 110.719 115.638C110.719 115.628 110.719 113.979 110.719 113.979Z" fill="#A56C53"/>
<path d="M110.719 114.011C110.719 114.462 106.543 114.827 101.394 114.827C96.2429 114.827 92.0675 114.462 92.0675 114.011C92.0675 113.56 96.2429 113.195 101.394 113.195C106.543 113.195 110.719 113.56 110.719 114.011Z" fill="#B27C60"/>
<path d="M102.953 113.979H99.8333C99.4845 113.979 99.2026 113.698 99.2026 113.349V99.0189H103.584V113.349C103.584 113.698 103.302 113.979 102.953 113.979Z" fill="#935B47"/>
<path d="M162.722 96.7132H40.064L62.1951 84.7509H142.372L162.722 96.7132Z" fill="#DBA086"/>
<path d="M40.064 96.7131H162.722V100.4H40.064V96.7131Z" fill="#CE8A72"/>
<path d="M130.913 95.684L148.795 93.5933C149.176 93.5487 149.464 93.2253 149.464 92.842V92.6352L129.32 85.129L110.092 85.0763V85.3703C110.092 85.7293 110.298 86.0568 110.622 86.2129L129.887 95.5117C130.206 95.6648 130.562 95.7246 130.913 95.684Z" fill="#C6D1E5"/>
<path d="M130.375 94.8658L149.464 92.6352L129.387 84.2763C129.343 84.2581 129.295 84.25 129.247 84.252L110.092 85.0774L130.375 94.8658Z" fill="#DAE1F2"/>
<path d="M129.851 93.715L145.344 92.0532C145.446 92.0431 145.466 91.9031 145.372 91.8626L129.199 84.9445C129.136 84.9182 129.067 84.905 128.998 84.908L114.723 85.5235C114.24 85.5438 114.106 86.1967 114.541 86.4066L129.595 93.6724C129.674 93.71 129.763 93.7252 129.851 93.715Z" fill="#C6D1E5"/>
<path d="M102.641 69.1566L102.383 69.2793L110.709 84.7833L130.375 94.8659L131.042 94.7878L121.914 76.5948C121.814 76.3971 121.644 76.243 121.437 76.1629L103.37 69.1292C103.134 69.038 102.87 69.0471 102.641 69.1566Z" fill="#ECF0FA"/>
<path d="M102.383 69.2793L110.092 85.0763L130.375 94.8659L121.373 77.0379C121.224 76.7439 120.973 76.5147 120.665 76.3951L102.383 69.2793Z" fill="#E4E8F2"/>
<path d="M143.92 6.2584C138.519 -0.555215 107.536 -2.14911 96.5959 5.3844C91.2008 9.93593 90.5448 21.6874 91.7736 28.9411C92.895 35.5671 95.2626 36.9268 95.2626 36.9268C98.8874 39.1219 108.636 40.653 120.97 40.653C127.639 40.653 134.758 40.0436 138.48 39.5204C144.104 38.7306 146.016 35.3491 146.015 29.6691C146.012 21.3964 145.638 9.20489 143.92 6.2584Z" fill="#F09CA2"/>
<path d="M156.288 20.0661C156.288 20.0661 156.505 18.1123 155.166 17.3092C153.826 16.5072 148.053 19.2712 148.014 22.8747C147.976 26.4792 154.795 23.8633 156.288 20.0661Z" fill="white"/>
<path d="M159.423 27.769C159.423 27.769 159.409 26.5503 158.525 26.1579C157.641 25.7655 154.298 27.9008 154.546 30.1203C154.795 32.3408 158.791 30.2166 159.423 27.769Z" fill="white"/>
<path d="M91.7726 29.3426C91.581 29.3426 91.4106 29.2037 91.3782 29.008C90.6989 24.9979 90.6715 20.1675 91.3042 16.0875C91.8548 12.5367 93.1749 7.74483 96.3373 5.07718C96.3475 5.06907 96.3576 5.06096 96.3688 5.05386C98.9786 3.25616 102.924 1.84983 107.777 0.989007C112.185 0.207266 117.224 -0.121248 122.348 0.0399674C127.358 0.198141 132.039 0.8065 135.886 1.79914C140.008 2.86377 142.895 4.31876 144.235 6.00898C144.372 6.18236 144.344 6.43483 144.17 6.57273C143.996 6.71062 143.744 6.68122 143.606 6.50784C142.376 4.95551 139.637 3.59684 135.686 2.57682C131.895 1.59838 127.273 0.998133 122.322 0.841987C111.468 0.500292 101.707 2.36288 96.8403 5.70379C91.365 10.3435 91.069 22.3748 92.1691 28.8741C92.2066 29.0932 92.0596 29.3 91.8406 29.3365C91.8182 29.3406 91.7949 29.3426 91.7726 29.3426Z" fill="#FFDD9F"/>
<path d="M133.469 20.5721C133.469 21.0244 133.446 21.4756 133.402 21.9257C133.358 22.3759 133.291 22.8231 133.203 23.2672C133.115 23.7113 133.005 24.1493 132.873 24.5822C132.743 25.0152 132.59 25.441 132.417 25.8588C132.244 26.2765 132.051 26.6851 131.837 27.0846C131.624 27.4831 131.392 27.8714 131.141 28.2476C130.889 28.6238 130.62 28.9868 130.333 29.3366C130.045 29.6854 129.742 30.021 129.423 30.3404C129.103 30.6608 128.768 30.9639 128.418 31.2509C128.068 31.5378 127.705 31.8075 127.329 32.059C126.953 32.3104 126.566 32.5426 126.166 32.7555C125.768 32.9695 125.359 33.1621 124.941 33.3355C124.524 33.5089 124.098 33.661 123.665 33.7918C123.232 33.9236 122.794 34.0331 122.35 34.1213C121.907 34.2095 121.46 34.2764 121.009 34.32C120.559 34.3646 120.108 34.387 119.655 34.387C119.202 34.387 118.751 34.3646 118.301 34.32C117.851 34.2764 117.404 34.2095 116.961 34.1213C116.517 34.0331 116.079 33.9236 115.646 33.7918C115.213 33.661 114.787 33.5089 114.369 33.3355C113.951 33.1621 113.543 32.9695 113.143 32.7555C112.745 32.5426 112.357 32.3104 111.981 32.059C111.605 31.8075 111.242 31.5378 110.892 31.2509C110.543 30.9639 110.208 30.6608 109.888 30.3404C109.568 30.021 109.264 29.6854 108.977 29.3366C108.69 28.9868 108.421 28.6238 108.17 28.2476C107.918 27.8714 107.686 27.4831 107.472 27.0846C107.259 26.6851 107.067 26.2765 106.893 25.8588C106.72 25.441 106.568 25.0152 106.436 24.5822C106.305 24.1493 106.196 23.7113 106.108 23.2672C106.019 22.8231 105.952 22.3759 105.908 21.9257C105.864 21.4756 105.842 21.0244 105.842 20.5721C105.842 20.1199 105.864 19.6677 105.908 19.2175C105.952 18.7673 106.019 18.3202 106.108 17.8771C106.196 17.433 106.305 16.995 106.436 16.562C106.568 16.1291 106.72 15.7032 106.893 15.2855C107.067 14.8667 107.259 14.4581 107.472 14.0597C107.686 13.6602 107.918 13.2728 108.17 12.8967C108.421 12.5205 108.69 12.1575 108.977 11.8077C109.264 11.4579 109.568 11.1233 109.888 10.8029C110.208 10.4835 110.543 10.1793 110.892 9.8924C111.242 9.60546 111.605 9.33677 111.981 9.08531C112.357 8.83386 112.745 8.60167 113.143 8.38773C113.543 8.1748 113.951 7.98114 114.369 7.80877C114.787 7.63539 115.213 7.4833 115.646 7.35149C116.079 7.22069 116.517 7.11017 116.961 7.02196C117.404 6.93375 117.851 6.86784 118.301 6.82323C118.751 6.77862 119.202 6.75732 119.655 6.75732C120.108 6.75732 120.559 6.77862 121.009 6.82323C121.46 6.86784 121.907 6.93375 122.35 7.02196C122.794 7.11017 123.232 7.22069 123.665 7.35149C124.098 7.4833 124.524 7.63539 124.941 7.80877C125.359 7.98114 125.768 8.1748 126.166 8.38773C126.566 8.60167 126.953 8.83386 127.329 9.08531C127.705 9.33677 128.068 9.60546 128.418 9.8924C128.768 10.1793 129.103 10.4835 129.423 10.8029C129.742 11.1233 130.045 11.4579 130.333 11.8077C130.62 12.1575 130.889 12.5205 131.141 12.8967C131.392 13.2728 131.624 13.6602 131.837 14.0597C132.051 14.4581 132.244 14.8667 132.417 15.2855C132.59 15.7032 132.743 16.1291 132.873 16.562C133.005 16.995 133.115 17.433 133.203 17.8771C133.291 18.3202 133.358 18.7673 133.402 19.2175C133.446 19.6677 133.469 20.1199 133.469 20.5721Z" fill="#E4E8F2"/>
<path d="M119.822 28.7809C119.345 28.7809 118.9 28.5426 118.635 28.1462L113.044 19.7752C112.606 19.1202 112.782 18.233 113.437 17.795C114.093 17.3569 114.979 17.5334 115.417 18.1894L119.765 24.6978L131.326 5.6734C131.736 4.99914 132.614 4.7852 133.288 5.19483C133.961 5.60445 134.175 6.48252 133.767 7.15678L121.042 28.0945C120.788 28.5112 120.34 28.7697 119.852 28.7799C119.842 28.7809 119.832 28.7809 119.822 28.7809Z" fill="#0C4160"/>
</svg>
